<?xml version="1.0" standalone="no"?>
<!DOCTYPE svg PUBLIC "-//W3C//DTD SVG 1.1//EN" "http://www.w3.org/Graphics/SVG/1.1/DTD/svg11.dtd" >
<svg xmlns="http://www.w3.org/2000/svg">
<metadata>Generated by IcoMoon</metadata>
<defs>
<font id="icomoon" horiz-adv-x="1024">
<font-face units-per-em="1024" ascent="960" descent="-64" />
<missing-glyph horiz-adv-x="1024" />
<glyph unicode="&#x20;" horiz-adv-x="512" d="" />
<glyph unicode="&#xe900;" glyph-name="about-contact-address" d="M512 916c220.914 0 400-168.91 400-377.272 0-122.769-104.151-288.848-312.454-498.237l-8.277-8.288-4.321-4.076c-42.685-38.065-109.388-37.282-151.062 1.053l-3.155 3.023-13.225 13.273c-205.004 207.041-307.506 371.458-307.506 493.251 0 208.362 179.086 377.272 400 377.272zM512 716.87c-99.411 0-180-80.238-180-179.217s80.589-179.217 180-179.217c99.411 0 180 80.238 180 179.217s-80.589 179.217-180 179.217z" />
<glyph unicode="&#xe901;" glyph-name="about-contact-mailbox" d="M878.667 800c18.409 0 33.333-14.938 33.333-33.366v-617.268c0-18.427-14.924-33.366-33.333-33.366h-733.333c-18.409 0-33.333 14.938-33.333 33.366v617.268c0 18.427 14.924 33.366 33.333 33.366h733.333zM337.724 390.842c-15.047 10.643-36.145 8.526-48.479-4.423l-1.873-2.134-108.101-133.882-2.495-3.525c-8.917-14.487-5.12-33.261 9.501-43.602 15.047-10.643 36.145-8.526 48.479 4.423l1.873 2.134 108.101 133.882 2.495 3.525c8.917 14.487 5.12 33.261-9.501 43.602zM686.276 390.842c-14.62-10.341-18.418-29.115-9.501-43.602l2.495-3.525 108.101-133.882c11.97-14.824 34.513-17.76 50.352-6.557 14.62 10.341 18.418 29.115 9.501 43.602l-2.495 3.525-108.101 133.882c-11.97 14.825-34.513 17.76-50.352 6.557zM823.709 647.41c-11.474 13.712-30.863 15.606-44.468 4.804l-2.098-1.811-210.094-196.858-4.999-4.387c-36.267-29.772-87.391-29.227-123.109 1.593l-3.303 2.978-208.716 196.613-3.262 2.708c-13.502 9.836-32.13 7.721-43.312-5.57-11.476-13.642-10.994-34.163 0.659-47.184l2.045-2.098 208.716-196.613 6.135-5.505c61.027-52.135 148.691-51.562 209.139 1.795l3.742 3.404 210.094 196.858 2.928 3.106c10.828 13.023 11.049 32.846-0.099 46.169z" />
<glyph unicode="&#xe902;" glyph-name="about-contact-proposal" horiz-adv-x="1028" d="M866.609 832c18.442 0 33.391-14.95 33.391-33.391v-561.581c0-18.442-14.95-33.391-33.391-33.391h-523.719l-210.89-139.636v734.609c0 18.442 14.95 33.391 33.391 33.391h701.217zM741.831 448h-471.872c-8.562 0-15.619-6.445-16.583-14.749l-0.112-1.947v-27.24c0-8.562 6.445-15.619 14.749-16.583l1.947-0.112h471.872c8.562 0 15.619 6.445 16.583 14.749l0.112 1.947v27.24c0 8.562-6.445 15.619-14.749 16.583l-1.947 0.112zM741.831 650.105h-471.872c-8.562 0-15.619-6.445-16.583-14.749l-0.112-1.947v-27.24c0-8.562 6.445-15.619 14.749-16.583l1.947-0.112h471.872c8.562 0 15.619 6.445 16.583 14.749l0.112 1.947v27.24c0 8.562-6.445 15.619-14.749 16.583l-1.947 0.112z" />
<glyph unicode="&#xe903;" glyph-name="about-contact-telephone" d="M365.781 854.026l10.33-14.624c25.009-35.783 43.891-65.737 56.646-89.861 11.395-21.553 21.138-44.577 29.228-69.072l3.366-10.588c5.447-17.816 0.507-37.178-12.813-50.221-5.778-5.658-12.372-11.57-19.781-17.739-18.338-15.266-37.57-28.68-57.696-40.243 21.863-56.18 46.794-106.067 74.794-149.662s60.106-82.51 96.317-116.748c16.573 14.887 32.084 27.247 46.532 37.081l6.103 4.048 6.167 3.879c18.87 11.551 43.1 9.342 59.563-5.429 21.774-19.537 42.576-41.026 62.407-64.467 20.618-24.371 39.984-50.615 58.099-78.731l7.687-12.164c7.022-11.33 6.6-25.75-1.074-36.652-15.314-21.756-34.94-42.935-58.875-63.538-23.105-19.888-48.206-37.681-75.303-53.379l-10.255-5.788c-10.517-5.783-23.335-5.473-33.559 0.811-115.502 70.993-213.688 172.24-294.56 303.743-78.468 127.595-130.499 256.65-156.094 387.167l-2.471 13.057c-2.053 11.252 1.825 22.769 10.269 30.498 25.028 22.909 51.143 43.919 78.345 63.030 19.92 13.995 40.285 26.875 61.094 38.639l12.539 6.924c14.799 7.981 33.235 3.705 42.994-9.972zM557.398 614.818c84.039-18.319 145.249-96.909 145.249-188.808 0-17.744-13.592-32.129-30.36-32.129-15.969 0-29.058 13.047-30.268 29.618l-0.091 2.511c0 61.258-40.824 113.674-96.779 125.871-16.422 3.58-26.993 20.571-23.611 37.95s19.438 28.566 35.86 24.987zM552.955 776.652l3.767-0.193c162.822-17.683 287.279-154.197 287.279-317.486 0-12.357-0.711-24.635-2.122-36.791-2.034-17.525-18.044-30.101-35.759-28.089s-30.427 17.85-28.394 35.376c1.13 9.739 1.7 19.583 1.7 29.505 0 130.619-99.582 239.849-229.751 253.986-17.725 1.925-30.517 17.7-28.571 35.236 1.807 16.283 15.686 28.357 31.851 28.457z" />
<glyph unicode="&#xe904;" glyph-name="about-information-last" d="M758.046 910.001c17.173-17.231 18.495-44.344 3.965-63.096l-3.963-4.503-395.007-396.401 395.005-396.399c17.173-17.231 18.495-44.344 3.965-63.096l-3.963-4.503c-17.172-17.232-44.192-18.558-62.88-3.979l-4.488 3.976-428.727 430.17c-17.173 17.231-18.495 44.344-3.965 63.096l3.963 4.503 428.727 430.23c18.603 18.668 48.764 18.669 67.368 0.002z" />
<glyph unicode="&#xe905;" glyph-name="about-information-next" d="M261.954 910.001c-17.173-17.231-18.495-44.344-3.965-63.096l3.963-4.503 395.007-396.401-395.005-396.399c-17.173-17.231-18.495-44.344-3.965-63.096l3.963-4.503c17.172-17.232 44.192-18.558 62.88-3.979l4.488 3.976 428.727 430.17c17.173 17.231 18.495 44.344 3.965 63.096l-3.963 4.503-428.727 430.23c-18.603 18.668-48.764 18.669-67.368 0.002z" />
<glyph unicode="&#xe906;" glyph-name="about-information-watch" d="M511.989 764c221.917 0 413.13-130.332 500.010-318-86.883-187.671-278.094-318-500.010-318s-413.127 130.33-500.008 317.996c86.878 187.673 278.091 318.004 500.008 318.004zM511.989 627.714c-101.228 0-183.29-81.356-183.29-181.714s82.062-181.714 183.29-181.714c101.228 0 183.29 81.356 183.29 181.714s-82.062 181.714-183.29 181.714z" />
<glyph unicode="&#xe907;" glyph-name="home-advantage-assess" d="M545.397 866.963l309.205-180.274c20.666-12.049 33.397-34.317 33.397-58.415v-360.548c0-24.098-12.731-46.366-33.397-58.415l-309.205-180.274c-20.666-12.049-46.129-12.049-66.795 0l-309.205 180.274c-20.666 12.049-33.397 34.317-33.397 58.415v360.548c0 24.098 12.731 46.366 33.397 58.415l309.205 180.274c20.666 12.049 46.129 12.049 66.795 0zM323.071 595.399c-16.283 9.472-37.104 3.851-46.505-12.555-8.953-15.625-4.319-35.397 10.208-45.427l2.253-1.43 188.291-109.536 0.009-200.149c0-18.944 15.242-34.302 34.044-34.302 17.947 0 32.651 13.993 33.95 31.742l0.093 2.56-0.009 199.6 173.567 100.961c16.283 9.472 21.862 30.451 12.461 46.857-8.953 15.625-28.265 21.468-44.149 13.806l-2.355-1.251-173.090-100.688-188.767 109.812z" />
<glyph unicode="&#xe908;" glyph-name="home-advantage-cooperation" d="M821.6 120c18.999 0 34.4-15.222 34.4-34s-15.401-34-34.4-34h-619.2c-18.999 0-34.4 15.222-34.4 34s15.401 34 34.4 34h619.2zM520.6 844c99.743 0 180.6-81.154 180.6-181.263 0-76.181-46.824-141.386-113.163-168.204l80.259-168.428h136.104c28.498 0 51.6-23.187 51.6-51.789v-86.316h-688v86.316c0 28.603 23.102 51.789 51.6 51.789h136.104l83.347 174.856c-57.405 29.208-97.169 88.291-98.986 156.867l-0.065 4.908c0 100.109 80.857 181.263 180.6 181.263z" />
<glyph unicode="&#xe909;" glyph-name="home-advantage-data" d="M340 808c66.274 0 120-53.726 120-120 0-26.968-8.896-51.859-23.914-71.897l53.728-53.742c18.542 13.604 41.426 21.639 66.186 21.639 25.437 0 48.893-8.48 67.696-22.767l40.887 37.487c-10.493 15.928-16.583 34.906-16.583 55.28 0 56.333 46.562 102 104 102s104-45.667 104-102c0-56.333-46.562-102-104-102-24.183 0-46.437 8.095-64.101 21.673l-40.415-37.045c12.923-18.259 20.516-40.557 20.516-64.628 0-23.059-6.969-44.491-18.915-62.304l55.369-50.945c17.574 13.322 39.616 21.249 63.546 21.249 57.438 0 104-45.667 104-102s-46.562-102-104-102c-57.438 0-104 45.667-104 102 0 20.604 6.229 39.782 16.941 55.819l-55.046 50.662c-19.158-15.32-43.457-24.481-69.895-24.481-25.784 0-49.533 8.713-68.464 23.355l-45.218-45.223c21.078-26.347 33.682-59.767 33.682-96.132 0-85.052-68.948-154-154-154s-154 68.948-154 154c0 85.052 68.948 154 154 154 36.359 0 69.775-12.6 96.12-33.673l45.838 45.841c-12.583 18.109-19.958 40.109-19.958 63.832 0 24.735 8.018 47.598 21.598 66.13l-53.737 53.757c-20.032-15.001-44.909-23.887-71.861-23.887-66.274 0-120 53.726-120 120s53.726 120 120 120z" />
<glyph unicode="&#xe90a;" glyph-name="home-advantage-unscramble" d="M684 228v-172l-172 70.024-172-70.024v172h344zM839.13 808c38.036 0 68.87-30.502 68.87-68.129v-391.742c0-37.627-30.834-68.129-68.87-68.129h-654.261c-38.036 0-68.87 30.502-68.87 68.129v391.742c0 37.627 30.834 68.129 68.87 68.129h654.261zM769.647 448h-515.294c-18.973 0-34.353-15.222-34.353-34 0-17.924 14.014-32.609 31.789-33.907l2.564-0.093h515.294c18.973 0 34.353 15.222 34.353 34s-15.38 34-34.353 34z" />
<glyph unicode="&#xe90b;" glyph-name="home-bar-open" d="M48.572 619.137c20.064 20.463 51.438 22.299 73.532 5.526l6.329-5.59 382.889-391.765 384.308 391.83c20.064 20.463 51.438 22.299 73.532 5.526l6.329-5.59c20.032-20.495 21.83-52.543 5.409-75.112l-5.473-6.465-424.201-432.632c-20.064-20.463-51.438-22.299-73.532-5.526l-6.329 5.59-422.858 432.632c-22.036 22.545-22.007 59.069 0.063 81.578z" />
<glyph unicode="&#xe90c;" glyph-name="home-bar-retract" horiz-adv-x="1028" d="M52.572 104.863c20.064-20.463 51.438-22.299 73.532-5.526l6.329 5.59 382.889 391.765 384.308-391.83c20.064-20.463 51.438-22.299 73.532-5.526l6.329 5.59c20.032 20.495 21.83 52.543 5.409 75.112l-5.473 6.465-424.201 432.632c-20.064 20.463-51.438 22.299-73.532 5.526l-6.329-5.59-422.858-432.632c-22.036-22.545-22.007-59.069 0.063-81.578z" />
<glyph unicode="&#xe90d;" glyph-name="home-footer-tiktok" d="M703.898 832c6.704-42.867 22.042-82.294 46.014-118.281s51.335-60.663 82.088-74.027v-143.736l-6.811 2.476c-30.268 11.116-55.36 21.864-75.277 32.242-15.472 8.062-30.81 17.46-46.014 28.193v-270.867c0-141.385-114.592-256-255.949-256s-255.949 114.615-255.949 256c0 141.385 114.592 256 255.949 256v-128c-70.678 0-127.974-57.308-127.974-128s57.296-128 127.974-128c70.678 0 127.974 57.308 127.974 128v544h127.974z" />
<glyph unicode="&#xe90e;" glyph-name="home-footer-wechat" d="M688 544c132.548 0 240-94.903 240-211.971 0-60.836-29.017-115.686-75.494-154.343l-2.957-2.419-4.276-3.356-1.18-0.901 19.539-63.106 0.331-0.911c1.764-5.062 1.654-8.419-0.331-10.071s-5.487-1.081-10.507 1.712l-0.902 0.516-64.912 39.851-5.401-2.1c-28.844-10.842-60.584-16.842-93.91-16.842-132.548 0-240 94.903-240 211.971s107.452 211.971 240 211.971zM384 800c143.778 0 262.948-93.651 284.518-216.072-145.848-4.163-262.547-104.191-262.547-226.978 0-23.384 4.233-45.943 12.093-67.171-11.169-1.177-22.537-1.779-34.063-1.779-38.742 0-75.697 6.8-109.437 19.13l-3.832 1.43-5.904 2.317-77.894-48.129c-6.605-3.906-11.168-4.803-13.69-2.691-2.396 2.007-2.516 6.097-0.359 12.271l0.359 0.992 23.447 76.214-2.945 2.274c-2.42 1.895-4.804 3.825-7.152 5.789-55.773 46.686-90.593 112.93-90.593 186.402 0 141.385 128.942 256 288 256zM800 448c-17.673 0-32-14.327-32-32s14.327-32 32-32c17.673 0 32 14.327 32 32s-14.327 32-32 32zM608 448c-17.673 0-32-14.327-32-32s14.327-32 32-32c17.673 0 32 14.327 32 32s-14.327 32-32 32zM268.368 672c-21.208 0-38.4-17.192-38.4-38.4s17.192-38.4 38.4-38.4c21.208 0 38.4 17.192 38.4 38.4s-17.192 38.4-38.4 38.4zM498.611 672c-21.208 0-38.4-17.192-38.4-38.4s17.192-38.4 38.4-38.4c21.208 0 38.4 17.192 38.4 38.4s-17.192 38.4-38.4 38.4z" />
<glyph unicode="&#xe90f;" glyph-name="home-footer-weibo" d="M470.238 657.823c61.388-46.642 2.912-106.748 29.195-119.040 12.101-5.66 43.244 10.688 79.999 21.702l3.374 0.988c42.397 12.117 92.656 15.399 118.783-11.034 26.187-26.493 23.679-56.197 16.457-78.226-5.451-16.629-14.42-28.132-11.060-34.828 7.812-15.565 107.504-15.565 122.811-99.206s-48.12-195.089-223.118-250.764c-174.998-55.675-510.747-16.466-539.308 165.243-19.041 121.139 42.582 236.137 184.87 344.994 104.406 71.209 177.072 91.266 217.997 60.172zM399.847 458.554c-151.185-13.045-266.883-100.978-258.418-196.403s137.888-162.208 289.073-149.164c151.185 13.045 266.883 100.978 258.418 196.403s-137.888 162.208-289.073 149.164zM534.529 311.042c17.282-63.611-35.255-132.763-117.345-154.457-82.090-21.692-162.647 12.289-179.93 75.899-17.282 63.611 35.255 132.763 117.345 154.457 82.090 21.692 162.647-12.289 179.93-75.899zM335.862 285.223c-29.318-7.748-47.99-32.78-41.706-55.911s35.146-35.602 64.464-27.855c29.318 7.748 47.99 32.78 41.706 55.911s-35.146 35.602-64.464 27.855zM421.076 309.14c-11.727-3.099-18.686-14.987-15.544-26.553s15.196-18.429 26.923-15.33c11.727 3.099 18.686 14.987 15.544 26.553s-15.196 18.429-26.923 15.33zM664 736c92.784 0 168-75.216 168-168 0-13.255-10.745-24-24-24s-24 10.745-24 24c0 66.274-53.726 120-120 120-13.255 0-24 10.745-24 24s10.745 24 24 24zM694.154 832c146.823 0 265.846-119.023 265.846-265.846 0-12.235-9.919-22.154-22.154-22.154s-22.154 9.919-22.154 22.154c0 122.352-99.186 221.538-221.538 221.538-12.235 0-22.154 9.919-22.154 22.154s9.919 22.154 22.154 22.154z" />
<glyph unicode="&#xe910;" glyph-name="home-introduce-left" d="M753.655 897.961c18.745-18.719 18.745-49.11 0.025-67.854l-381.996-381.863 382.268-382.33c18.731-18.751 18.731-49.142-0.007-67.868-17.56-17.55-45.322-18.654-64.165-3.306l-3.644 3.289-416.099 416.17c-10.53 10.544-15.137 24.772-13.818 38.537 1.010 10.932 5.616 21.362 13.806 29.563l415.812 415.688c18.749 18.696 49.081 18.684 67.816-0.025z" />
<glyph unicode="&#xe911;" glyph-name="home-introduce-right" d="M270.345 897.961c-18.745-18.719-18.745-49.11-0.025-67.854l381.996-381.863-382.268-382.33c-18.731-18.751-18.731-49.142 0.007-67.868 17.56-17.55 45.322-18.654 64.165-3.306l3.644 3.289 416.099 416.17c10.53 10.544 15.137 24.772 13.818 38.537-1.010 10.932-5.616 21.362-13.806 29.563l-415.812 415.688c-18.749 18.696-49.081 18.684-67.816-0.025z" />
<glyph unicode="&#xe912;" glyph-name="home-scene-city" d="M512 696c201.032 0 364-162.968 364-364s-162.968-364-364-364c-201.032 0-364 162.968-364 364s162.968 364 364 364zM506.644 577.138l-0.231-0.406-69.886-141.605-156.27-22.707c-0.871-0.126-1.675-0.536-2.289-1.166-1.423-1.46-1.505-3.73-0.265-5.284l0.338-0.373 113.078-110.224-26.694-155.639c-0.149-0.867-0.007-1.759 0.402-2.538 0.955-1.816 3.108-2.594 4.976-1.872l0.425 0.193 139.772 73.483 139.772-73.483c0.779-0.409 1.671-0.551 2.538-0.402 2.022 0.347 3.427 2.155 3.319 4.154l-0.052 0.464-26.694 155.639 113.078 110.224c0.63 0.614 1.040 1.419 1.166 2.289 0.295 2.030-0.99 3.925-2.925 4.44l-0.458 0.094-156.27 22.707-69.886 141.605c-0.389 0.789-1.028 1.427-1.817 1.817-1.698 0.838-3.703 0.36-4.857-1.041l-0.27-0.369zM896 928l-120.448-248c-62.877 49.482-139.781 81.196-223.552 87.81l78.634 160.19h265.366zM393.354 928l78.646-160.194c-83.773-6.608-160.68-38.322-223.56-87.806l-120.44 248h265.354z" />
<glyph unicode="&#xe913;" glyph-name="home-scene-promote" d="M645.882 44c21.052 0 38.118-17.013 38.118-38s-17.066-38-38.118-38h-247.765c-21.052 0-38.118 17.013-38.118 38s17.066 38 38.118 38h247.765zM512 928c201.032 0 364-163.010 364-364.093 0-138.681-77.515-259.253-191.571-320.731l-0.008-120.013c0-10.583-8.577-19.163-19.158-19.163h-287.368c-10.581 0-19.158 8.579-19.158 19.163l0.009 110.398c-124.456 57.865-210.746 184.026-210.746 330.346 0 201.083 162.968 364.093 364 364.093zM441.789 806.246c-6.107 14.679-22.99 21.64-37.708 15.549-60.914-25.209-111.096-71.388-141.27-129.819-20.149-39.019-30.811-82.378-30.811-127.2 0-15.892 12.918-28.775 28.853-28.775s28.853 12.883 28.853 28.775c0 35.602 8.442 69.934 24.408 100.85 23.937 46.354 63.788 83.026 112.085 103.013 14.718 6.091 21.699 22.928 15.591 37.607z" />
<glyph unicode="&#xe914;" glyph-name="home-scene-school" d="M860 756v-521.164c0-51.617-41.425-93.559-92.844-94.392l-1.561-0.013-137.776-15.077c-24.308-2.66-46.556-14.888-61.832-33.982l-53.898-67.372-52.634 67.26c-15.003 19.173-36.994 31.617-61.155 34.607l-118.301 14.564c-53.019 0-96 42.981-96 96v519.569h676zM514.951 631.742l-0.423-0.8-49.502-99.244-110.69-15.914c-4.096-0.589-7.882-2.498-10.772-5.431-7.036-7.142-7.106-18.446-0.316-25.671l0.657-0.665 80.096-77.25-18.908-109.079c-0.7-4.037-0.035-8.189 1.891-11.815 4.695-8.836 15.554-12.394 24.602-8.219l0.817 0.401 99.004 51.5 99.004-51.5c3.664-1.906 7.861-2.564 11.941-1.871 9.961 1.69 16.742 10.838 15.496 20.66l-0.127 0.843-18.908 109.079 80.096 77.25c2.964 2.859 4.893 6.605 5.488 10.658 1.453 9.896-5.244 19.103-15.070 20.967l-0.85 0.142-110.69 15.914-49.502 99.244c-1.832 3.673-4.837 6.646-8.549 8.458-8.773 4.284-19.287 1.182-24.329-6.888l-0.456-0.771zM928 872c4.418 0 8-3.582 8-8v-60c0-4.418-3.582-8-8-8h-832c-4.418 0-8 3.582-8 8v60c0 4.418 3.582 8 8 8h832z" />
<glyph unicode="&#xe915;" glyph-name="home-scene-understand" d="M240.347 292l200.919-99.521c41.488-20.552 90.009-21.409 132.083-2.569l5.45 2.569 200.642 99.388 117.912-58.308c9.502-4.7 13.361-16.145 8.62-25.564-1.969-3.912-5.236-7.034-9.251-8.842l-323.059-145.495c-40.432-18.209-86.83-18.209-127.262 0l-323.122 145.524c-9.668 4.354-13.945 15.653-9.552 25.236 1.821 3.972 4.961 7.205 8.897 9.158l117.722 58.425zM240.347 504l200.919-99.521c41.488-20.552 90.009-21.409 132.083-2.569l5.45 2.569 200.642 99.388 117.912-58.308c9.502-4.7 13.361-16.145 8.62-25.564-1.969-3.912-5.236-7.034-9.251-8.842l-323.059-145.495c-40.432-18.209-86.83-18.209-127.262 0l-323.122 145.524c-9.668 4.354-13.945 15.653-9.552 25.236 1.821 3.972 4.961 7.205 8.897 9.158l117.722 58.425zM580.171 815.773l321.173-160.547c9.51-4.754 13.373-16.331 8.627-25.858-1.862-3.738-4.886-6.77-8.617-8.637l-320.499-160.46c-43.329-21.693-94.323-21.693-137.653 0l-320.557 160.489c-9.507 4.76-13.363 16.34-8.611 25.864 1.86 3.729 4.877 6.754 8.599 8.62l319.871 160.437c43.319 21.727 94.319 21.762 137.667 0.093z" />
<glyph unicode="&#xe916;" glyph-name="home-scene-lowerright" d="M1024 960v-1024h-1024v113.981h910.17v910.019z" />
<glyph unicode="&#xe917;" glyph-name="home-scene-topleft" d="M0-64v1024h1024v-113.981h-910.17v-910.019z" />
</font>
</defs>
</svg>
